<?xml version="1.0" standalone="no"?>
<!DOCTYPE svg PUBLIC "-//W3C//DTD SVG 20010904//EN"
 "http://www.w3.org/TR/2001/REC-SVG-20010904/DTD/svg10.dtd">
<svg version="1.0" xmlns="http://www.w3.org/2000/svg"
 width="300.000000pt" height="300.000000pt" viewBox="0 0 300.000000 300.000000"
 preserveAspectRatio="xMidYMid meet">
<metadata>
Created by potrace 1.10, written by Peter Selinger 2001-2011
</metadata>
<g transform="translate(0.000000,300.000000) scale(0.100000,-0.100000)"
fill="#ff0000" stroke="none">
<path d="M1712 2485 c-29 -8 -66 -22 -82 -30 -23 -12 -78 -15 -287 -16 -142
-1 -325 -4 -408 -8 -133 -5 -150 -8 -153 -24 -9 -44 -1 -45 370 -39 l351 5
-40 -40 c-57 -57 -94 -113 -151 -233 -64 -134 -96 -218 -117 -301 l-17 -66
-166 -6 c-92 -3 -168 -4 -170 -3 -1 2 30 90 69 197 109 298 142 398 135 415
-4 10 -16 14 -38 12 -38 -4 -34 6 -165 -373 -48 -137 -88 -252 -90 -254 -1 -2
-9 2 -18 9 -10 8 -30 11 -59 7 -64 -9 -96 -26 -96 -53 0 -28 17 -34 89 -34
l57 0 -103 -307 c-158 -470 -165 -504 -115 -543 25 -21 34 -22 152 -17 110 4
243 26 363 58 35 9 38 13 35 42 -3 29 -7 33 -47 41 -39 8 -46 7 -62 -12 -23
-29 -132 -52 -276 -59 -62 -3 -113 -4 -113 -1 0 17 94 323 166 539 l85 256 61
7 c34 3 113 6 177 6 l116 0 1 -113 c2 -167 44 -301 146 -470 38 -63 43 -68 72
-65 27 3 31 7 34 37 5 49 -4 76 -31 88 -42 20 -116 201 -137 339 -7 42 -9 102
-5 135 l7 58 131 3 132 3 0 30 0 30 -123 0 c-88 0 -122 3 -122 12 0 22 67 218
99 288 51 111 114 206 184 273 l65 62 199 0 199 0 27 -42 c46 -70 60 -131 65
-276 5 -161 -14 -289 -64 -442 -104 -311 -240 -512 -491 -720 l-92 -77 -163
-17 c-261 -28 -376 -61 -408 -118 -13 -25 -13 -31 0 -55 22 -41 74 -63 145
-63 104 0 199 35 366 133 l94 55 390 7 c353 6 564 1 803 -20 39 -3 49 -2 31 4
-54 18 -71 32 -59 46 21 26 -57 30 -567 30 -277 0 -503 2 -503 5 0 3 12 13 28
22 37 23 231 219 287 292 52 68 173 308 209 416 60 179 70 242 70 450 1 206
-7 253 -55 338 l-19 34 270 -3 c188 -3 273 0 281 8 6 6 9 21 7 34 -3 24 -3 24
-193 31 -104 5 -239 5 -300 2 -107 -5 -111 -5 -160 23 -44 24 -62 28 -150 30
-65 2 -118 -2 -153 -12z m292 -49 c26 -15 60 -26 82 -26 36 0 37 -1 20 -19
-17 -19 -17 -23 8 -85 41 -103 49 -164 43 -346 -6 -189 -29 -300 -97 -473 -45
-116 -131 -276 -185 -345 -44 -58 -182 -199 -252 -259 -55 -47 -65 -75 -35
-92 13 -8 3 -10 -42 -11 -52 0 -67 -5 -140 -49 -96 -57 -147 -84 -216 -111
-76 -30 -60 -15 27 25 43 20 88 45 100 57 21 20 22 23 7 40 -20 22 -13 25 68
32 58 5 83 14 120 44 263 212 392 376 500 629 88 209 129 393 128 573 -2 171
-33 283 -98 353 l-26 27 -202 0 -203 0 -61 -57 c-115 -106 -201 -255 -274
-476 -41 -121 -42 -130 -21 -147 13 -11 11 -15 -11 -33 l-26 -20 5 -131 c3
-106 9 -144 30 -202 40 -114 83 -199 111 -221 16 -13 26 -31 26 -47 0 -56 -35
-20 -98 102 -62 119 -92 235 -99 377 -3 66 -10 126 -16 133 -7 9 -4 19 11 35
11 12 23 33 25 47 24 134 150 405 241 519 l67 84 -22 23 -22 24 64 0 c41 0 84
8 119 21 83 31 127 38 217 35 67 -3 91 -9 127 -30z m631 -36 c-3 -5 -19 -10
-35 -10 -16 0 -32 5 -35 10 -4 6 10 10 35 10 25 0 39 -4 35 -10z m-1615 -84
c0 -4 -60 -174 -140 -401 -16 -44 -36 -97 -44 -117 -20 -48 -20 -77 1 -100 15
-17 15 -18 -4 -18 -11 0 -27 -8 -36 -18 -29 -32 -257 -735 -257 -793 0 -14 5
-30 12 -37 18 -18 3 -25 -22 -12 -41 22 -24 90 157 625 75 224 75 235 -7 235
-28 0 -49 4 -46 9 9 15 77 21 97 8 15 -9 22 -9 34 4 9 8 58 134 109 280 109
307 121 339 135 339 6 0 11 -2 11 -4z m-4 -1426 c31 0 11 -17 -31 -27 -25 -6
-45 -8 -45 -5 0 14 35 42 48 37 7 -3 20 -5 28 -5z m303 -163 c-26 -19 -179
-80 -232 -93 -54 -14 -73 -15 -93 -5 -59 26 -4 51 191 85 115 20 148 23 134
13z m-354 -47 c-27 -28 -27 -30 -11 -55 19 -29 3 -35 -26 -8 -29 26 -22 50 20
72 49 27 51 26 17 -9z"/>
<path d="M2968 763 c24 -5 32 -47 10 -56 -8 -3 -6 -6 5 -6 13 -1 17 7 17 34 0
32 -2 35 -27 34 -24 -2 -25 -2 -5 -6z"/>
</g>
</svg>
